<svg xmlns="http://www.w3.org/2000/svg" fill="none" viewBox="0 0 124 124"><path fill="#fff" d="M22.7 47h99.6v73.7H22.7z"/><path fill="#007acc" d="M1.5 64v62.4h125V1.4H1.5zm100.7-5a16 16 0 0 1 7.9 4.4 21 21 0 0 1 3 4c0 .2-5.4 3.8-8.7 5.9q-.3 0-1.2-1.3a7 7 0 0 0-5.8-3.5c-3.8-.3-6.3 1.7-6.2 5a5 5 0 0 0 .5 2.3c.8 1.8 2.4 2.8 7.2 4.9 9 3.8 12.8 6.4 15.2 10a18 18 0 0 1 1.4 15.2c-2 5.2-6.9 8.8-13.8 10a38 38 0 0 1-9.5-.2 23 23 0 0 1-12.7-6.6 22 22 0 0 1-3.3-4.8l1.2-.7L82 101l3.6-2 .7 1a17 17 0 0 0 4.8 4.6c4 2 9.4 1.8 12.1-.6a5.4 5.4 0 0 0 .7-7c-1-1.4-3-2.5-8.6-5a31 31 0 0 1-11.7-7.2 17 17 0 0 1-3.5-6.3 25 25 0 0 1-.2-8c1.3-6.2 6-10.5 12.8-11.8a32 32 0 0 1 9.5.2zM73 64v5.2H56.7v46.2H45V69.3H29V59l22-.1h21.8z" data-name="original"/></svg>